<svg width="1024" height="1024" viewBox="0 0 1024 1024" fill="none" xmlns="http://www.w3.org/2000/svg">
<g clip-path="url(#clip0_2763_2389)">
<rect width="1024" height="1024" fill="white"/>
<rect width="1024" height="1024" fill="#262625"/>
<rect width="1024" height="1024" fill="#262625"/>
<g clip-path="url(#clip1_2763_2389)">
<path d="M510.109 108.704H713.53C738.308 108.704 756.173 133.738 749.834 157.027L715.834 294.427C714.105 300.831 706.614 307.235 699.7 307.235H577.531L573.497 318.88H510.109H446.72L442.685 307.235H321.094C314.179 307.235 306.687 300.831 304.959 294.427L270.383 157.027C264.62 133.738 281.908 108.704 306.687 108.704H510.109ZM510.109 201.38H348.232C345.455 201.38 343.621 203.709 343.621 206.513V213.394C343.621 216.199 345.926 218.528 348.232 218.528H510.109H672.09C674.867 218.528 676.701 216.199 676.701 213.394V206.513C676.701 203.709 674.395 201.38 672.09 201.38H510.109ZM510.109 87.5356H298.203C269.705 87.5356 239.949 118.445 248.488 152.741L285.054 301.57C289.088 317.66 293.593 328.403 313.658 328.403H428.542L432.576 341H510.789H588.532L592.566 328.403H707.45C727.515 328.403 732.02 318.03 736.054 301.57L772.305 152.741C780.844 118.445 750.617 87.5356 722.59 87.5356H510.109ZM681.855 155.016H662.682C660.954 155.016 659.33 156.656 659.33 158.403V165.654C659.33 167.4 660.482 169.041 662.682 169.041H681.855C683.584 169.041 685.208 167.4 685.208 165.654V158.403C684.737 156.656 683.584 155.016 681.855 155.016ZM338.822 155.016H357.996C359.724 155.016 361.348 156.656 361.348 158.403V165.654C361.348 167.4 360.195 169.041 357.996 169.041H338.822C337.093 169.041 335.469 167.4 335.469 165.654V158.403C335.941 156.656 337.093 155.016 338.822 155.016ZM636.907 155.016H617.734C616.005 155.016 614.381 156.656 614.381 158.403V165.654C614.381 167.4 615.534 169.041 617.734 169.041H636.907C638.636 169.041 640.26 167.4 640.26 165.654V158.403C639.788 156.656 638.636 155.016 636.907 155.016ZM383.77 155.016H402.944C404.673 155.016 406.297 156.656 406.297 158.403V165.654C406.297 167.4 405.145 169.041 402.944 169.041H383.77C382.042 169.041 380.419 167.4 380.419 165.654V158.403C380.89 156.656 382.042 155.016 383.77 155.016ZM587.924 155.016H568.752C567.023 155.016 565.399 156.656 565.399 158.403V165.654C565.399 167.4 566.551 169.041 568.752 169.041H587.924C589.653 169.041 591.277 167.4 591.277 165.654V158.403C591.277 156.656 589.653 155.016 587.924 155.016ZM432.753 155.016H451.927C453.655 155.016 455.279 156.656 455.279 158.403V165.654C455.279 167.4 454.127 169.041 451.927 169.041H432.753C431.024 169.041 429.4 167.4 429.4 165.654V158.403C429.4 156.656 431.024 155.016 432.753 155.016ZM543.657 155.016H524.484C522.756 155.016 521.132 156.656 521.132 158.403V165.654C521.132 167.4 522.284 169.041 524.484 169.041H543.657C545.386 169.041 547.01 167.4 547.01 165.654V158.403C547.01 156.656 545.281 155.016 543.657 155.016ZM477.021 155.016H496.194C497.923 155.016 499.547 156.656 499.547 158.403V165.654C499.547 167.4 498.394 169.041 496.194 169.041H477.021C475.292 169.041 473.668 167.4 473.668 165.654V158.403C473.668 156.656 475.397 155.016 477.021 155.016ZM636.907 251.079H617.734C616.005 251.079 614.381 252.72 614.381 254.467V261.717C614.381 263.464 615.534 265.104 617.734 265.104H636.907C638.636 265.104 640.26 263.464 640.26 261.717V254.467C639.788 252.72 638.636 251.079 636.907 251.079ZM383.77 251.079H402.944C404.673 251.079 406.297 252.72 406.297 254.467V261.717C406.297 263.464 405.145 265.104 402.944 265.104H383.77C382.042 265.104 380.419 263.464 380.419 261.717V254.467C380.89 252.72 382.042 251.079 383.77 251.079ZM587.924 251.079H568.752C567.023 251.079 565.399 252.72 565.399 254.467V261.717C565.399 263.464 566.551 265.104 568.752 265.104H587.924C589.653 265.104 591.277 263.464 591.277 261.717V254.467C591.277 252.72 589.653 251.079 587.924 251.079ZM432.753 251.079H451.927C453.655 251.079 455.279 252.72 455.279 254.467V261.717C455.279 263.464 454.127 265.104 451.927 265.104H432.753C431.024 265.104 429.4 263.464 429.4 261.717V254.467C429.4 252.72 431.024 251.079 432.753 251.079ZM543.657 251.079H524.484C522.756 251.079 521.132 252.72 521.132 254.467V261.717C521.132 263.464 522.284 265.104 524.484 265.104H543.657C545.386 265.104 547.01 263.464 547.01 261.717V254.467C547.01 252.72 545.281 251.079 543.657 251.079ZM477.021 251.079H496.194C497.923 251.079 499.547 252.72 499.547 254.467V261.717C499.547 263.464 498.394 265.104 496.194 265.104H477.021C475.292 265.104 473.668 263.464 473.668 261.717V254.467C473.668 252.72 475.397 251.079 477.021 251.079ZM681.855 251.079H662.682C660.954 251.079 659.33 252.72 659.33 254.467V261.717C659.33 263.464 660.482 265.104 662.682 265.104H681.855C683.584 265.104 685.208 263.464 685.208 261.717V254.467C684.737 252.72 683.584 251.079 681.855 251.079ZM338.822 251.079H357.996C359.724 251.079 361.348 252.72 361.348 254.467V261.717C361.348 263.464 360.195 265.104 357.996 265.104H338.822C337.093 265.104 335.469 263.464 335.469 261.717V254.467C335.941 252.72 337.093 251.079 338.822 251.079Z" fill="white"/>
</g>
<g filter="url(#filter0_d_2763_2389)">
<path d="M171.25 603H61V572.5H98.375V453.125H61V422.625H171.25V453.125H133.875V572.5H171.25V603ZM207.125 552.5H240.625C242.25 568.125 255 577.125 275.5 577.125C295 577.125 307.375 567.75 307.375 553.125C307.375 540.875 299.375 534.375 278.5 529.75L259.75 525.375C227.125 518 211.125 500.75 211.125 474C211.125 440.375 236 419 275 419C312.75 419 338.125 440.125 339.25 472.375H305.75C304.375 457.5 293 448.375 275.375 448.375C257.5 448.375 246.375 456.75 246.375 470.25C246.375 483 254.375 490 273.875 494.25L292.375 498.5C327.25 506.25 342.5 521.875 342.5 549.5C342.5 585.125 317 606.625 274.875 606.625C234 606.625 208.375 586.25 207.125 552.5ZM502 526.625C502 576.75 475.875 606.625 432.625 606.625C389.375 606.625 363.25 576.75 363.25 526.625V499C363.25 448.875 389.375 419 432.625 419C475.875 419 502 448.875 502 499V526.625ZM432.625 575.125C454.375 575.125 465.875 558.75 465.875 526.25V499.375C465.875 466.875 454.375 450.5 432.625 450.5C410.875 450.5 399.375 466.875 399.375 499.375V526.25C399.375 558.75 410.875 575.125 432.625 575.125ZM657.125 538.25H524.625V507.25H657.125V538.25ZM766.875 603H731.375V453.25H679.75V422.625H818.5V453.25H766.875V603ZM846.875 422.625H912.875C950.75 422.625 974.75 446.5 974.75 484.375C974.75 521.875 950 545.75 911.125 545.75H882.375V603H846.875V422.625ZM882.375 451.75V516.5H903.875C927.125 516.5 938.75 505.875 938.75 484.125C938.75 462.5 927.125 451.75 903.875 451.75H882.375Z" fill="white"/>
</g>
<g filter="url(#filter1_d_2763_2389)">
<path d="M-205.688 786L-166.75 711.625V710.562H-213V695.75H-148.875V710.688L-187.062 786H-205.688ZM-72.625 770.688V786H-129.5V695.812H-72.625V711.125H-111.688V733.312H-74.9375V747.5H-111.688V770.688H-72.625ZM-23.0625 787.875C-44.3125 787.875 -58.625 777.312 -58.625 761.688C-58.625 750.625 -51 741.688 -39.0625 738.875V737.75C-48.8125 735.438 -55 727.812 -55 718.312C-55 704 -41.75 693.938 -23.0625 693.938C-4.4375 693.938 8.8125 704 8.8125 718.312C8.8125 727.812 2.625 735.438 -7.125 737.75V738.875C4.75 741.562 12.4375 750.562 12.4375 761.688C12.4375 777.312 -1.875 787.875 -23.0625 787.875ZM-23.0625 732.562C-14.4375 732.562 -8.6875 727.438 -8.6875 719.938C-8.6875 712.438 -14.4375 707.312 -23.0625 707.312C-31.75 707.312 -37.5 712.438 -37.5 719.938C-37.5 727.438 -31.75 732.562 -23.0625 732.562ZM-23.0625 774.188C-12.875 774.188 -5.9375 768.438 -5.9375 760C-5.9375 751.562 -12.875 745.812 -23.0625 745.812C-33.3125 745.812 -40.25 751.562 -40.25 760C-40.25 768.438 -33.3125 774.188 -23.0625 774.188ZM90.9375 786H26.1875V771.188H50.5V713.438H49.375L26.125 728.875V712.125L50.5 695.812H67.875V771.188H90.9375V786ZM135.062 787.875C113.438 787.875 101.188 770.938 101.188 740.875C101.188 710.812 113.438 693.875 135.062 693.875C156.75 693.875 169 710.812 169 740.875C169 770.938 156.75 787.875 135.062 787.875ZM118.562 740.875C118.562 741.688 118.562 742.438 118.562 743.188L149.562 722.688C147 713.438 142.125 708.562 135.062 708.562C124.375 708.562 118.562 719.938 118.562 740.875ZM135.062 773.188C145.812 773.188 151.625 761.875 151.625 740.875C151.625 740.125 151.625 739.438 151.625 738.688L120.625 759.188C123.188 768.375 128.062 773.188 135.062 773.188ZM249.188 786H184.438V771.188H208.75V713.438H207.625L184.375 728.875V712.125L208.75 695.812H226.125V771.188H249.188V786ZM300.438 786V768.938H260.125V754.688L287.562 695.812H305.5L279 753.25V754.375H301V731.625H316.812V754.688H329.062V768.938H317.062V786H300.438ZM379.562 786V768.938H339.25V754.688L366.688 695.812H384.625L358.125 753.25V754.375H380.125V731.625H395.938V754.688H408.188V768.938H396.188V786H379.562ZM417.5 725.938C417.5 707.688 432.125 693.938 451.5 693.938C471.938 693.938 485.938 707.375 485.938 727.125C485.938 737.938 482.125 748.062 473 760.938C470.062 765.375 456.375 783.062 454 785.938H434L456.625 755.938C459.062 752.625 460.062 751.125 460.75 749.625L459.5 749.438C456.188 752.875 450.75 754.938 445.125 754.938C429.125 754.938 417.5 742.812 417.5 725.938ZM451.812 709C442.25 709 435.125 715.938 435.125 725.312C435.125 734.688 442.25 741.688 451.812 741.688C461.375 741.688 468.5 734.688 468.5 725.312C468.5 715.938 461.375 709 451.812 709ZM530.688 787.875C509.062 787.875 496.812 770.938 496.812 740.875C496.812 710.812 509.062 693.875 530.688 693.875C552.375 693.875 564.625 710.812 564.625 740.875C564.625 770.938 552.375 787.875 530.688 787.875ZM514.188 740.875C514.188 741.688 514.188 742.438 514.188 743.188L545.188 722.688C542.625 713.438 537.75 708.562 530.688 708.562C520 708.562 514.188 719.938 514.188 740.875ZM530.688 773.188C541.438 773.188 547.25 761.875 547.25 740.875C547.25 740.125 547.25 739.438 547.25 738.688L516.25 759.188C518.812 768.375 523.688 773.188 530.688 773.188ZM577.438 723C577.438 705.75 590.5 694 609.438 694C628.062 694 640.625 704.562 640.625 720.188C640.625 730.062 635.438 738.5 620.188 753.125L602.562 769.938V771.062H642V786H578.438V773.562L607.812 744.5C620.125 732.188 623.312 727.438 623.312 721.375C623.312 713.562 617.625 708.438 608.875 708.438C599.938 708.438 593.938 714.312 593.938 722.938V723.375H577.438V723ZM688.938 787.875C667.312 787.875 655.062 770.938 655.062 740.875C655.062 710.812 667.312 693.875 688.938 693.875C710.625 693.875 722.875 710.812 722.875 740.875C722.875 770.938 710.625 787.875 688.938 787.875ZM672.438 740.875C672.438 741.688 672.438 742.438 672.438 743.188L703.438 722.688C700.875 713.438 696 708.562 688.938 708.562C678.25 708.562 672.438 719.938 672.438 740.875ZM688.938 773.188C699.688 773.188 705.5 761.875 705.5 740.875C705.5 740.125 705.5 739.438 705.5 738.688L674.5 759.188C677.062 768.375 681.938 773.188 688.938 773.188ZM803.062 786H738.312V771.188H762.625V713.438H761.5L738.25 728.875V712.125L762.625 695.812H780V771.188H803.062V786ZM846.688 787.812C827.812 787.812 814.688 776.688 814.188 760.375H831.312C832.375 767.625 838.688 772.5 847.062 772.5C856.75 772.5 863.25 765.938 863.25 756.188C863.25 746.375 856.688 739.75 847.062 739.75C840.562 739.75 835.625 742.5 832.375 747.938H815.25L819.5 695.812H874.625V710.75H833.562L831.625 734.812H832.75C836.625 729.125 843.438 726 851.875 726C868.5 726 880.125 738.188 880.125 755.75C880.125 775 866.688 787.812 846.688 787.812ZM915.312 746.438V733.062H925.875C934.875 733.062 940.75 728.125 940.75 720.562C940.75 713.062 935 708.312 925.938 708.312C917.062 708.312 911.125 713.375 910.562 721.312H894.75C895.375 704.375 907.438 694 926.5 694C944.812 694 957.25 703.688 957.25 717.938C957.25 728.562 951.188 736.375 941.312 738.375V739.5C953.5 740.938 960.75 748.938 960.75 760.875C960.75 776.875 946.938 787.812 926.75 787.812C907.062 787.812 893.812 777 893 760.125H909.438C910.062 767.812 916.562 772.688 926.25 772.688C936.562 772.688 943.125 767.625 943.125 759.688C943.125 751.625 936.438 746.438 926.062 746.438H915.312ZM1012.56 786V768.938H972.25V754.688L999.688 695.812H1017.62L991.125 753.25V754.375H1013.12V731.625H1028.94V754.688H1041.19V768.938H1029.19V786H1012.56ZM1052.19 723C1052.19 705.75 1065.25 694 1084.19 694C1102.81 694 1115.38 704.562 1115.38 720.188C1115.38 730.062 1110.19 738.5 1094.94 753.125L1077.31 769.938V771.062H1116.75V786H1053.19V773.562L1082.56 744.5C1094.88 732.188 1098.06 727.438 1098.06 721.375C1098.06 713.562 1092.38 708.438 1083.62 708.438C1074.69 708.438 1068.69 714.312 1068.69 722.938V723.375H1052.19V723ZM1152.69 746.438V733.062H1163.25C1172.25 733.062 1178.12 728.125 1178.12 720.562C1178.12 713.062 1172.38 708.312 1163.31 708.312C1154.44 708.312 1148.5 713.375 1147.94 721.312H1132.12C1132.75 704.375 1144.81 694 1163.88 694C1182.19 694 1194.62 703.688 1194.62 717.938C1194.62 728.562 1188.56 736.375 1178.69 738.375V739.5C1190.88 740.938 1198.12 748.938 1198.12 760.875C1198.12 776.875 1184.31 787.812 1164.12 787.812C1144.44 787.812 1131.19 777 1130.38 760.125H1146.81C1147.44 767.812 1153.94 772.688 1163.62 772.688C1173.94 772.688 1180.5 767.625 1180.5 759.688C1180.5 751.625 1173.81 746.438 1163.44 746.438H1152.69ZM1277.81 786H1213.06V771.188H1237.38V713.438H1236.25L1213 728.875V712.125L1237.38 695.812H1254.75V771.188H1277.81V786Z" fill="white"/>
</g>
<g filter="url(#filter2_d_2763_2389)">
<path d="M-205.688 890L-166.75 815.625V814.562H-213V799.75H-148.875V814.688L-187.062 890H-205.688ZM-72.625 874.688V890H-129.5V799.812H-72.625V815.125H-111.688V837.312H-74.9375V851.5H-111.688V874.688H-72.625ZM-23.0625 891.875C-44.3125 891.875 -58.625 881.312 -58.625 865.688C-58.625 854.625 -51 845.688 -39.0625 842.875V841.75C-48.8125 839.438 -55 831.812 -55 822.312C-55 808 -41.75 797.938 -23.0625 797.938C-4.4375 797.938 8.8125 808 8.8125 822.312C8.8125 831.812 2.625 839.438 -7.125 841.75V842.875C4.75 845.562 12.4375 854.562 12.4375 865.688C12.4375 881.312 -1.875 891.875 -23.0625 891.875ZM-23.0625 836.562C-14.4375 836.562 -8.6875 831.438 -8.6875 823.938C-8.6875 816.438 -14.4375 811.312 -23.0625 811.312C-31.75 811.312 -37.5 816.438 -37.5 823.938C-37.5 831.438 -31.75 836.562 -23.0625 836.562ZM-23.0625 878.188C-12.875 878.188 -5.9375 872.438 -5.9375 864C-5.9375 855.562 -12.875 849.812 -23.0625 849.812C-33.3125 849.812 -40.25 855.562 -40.25 864C-40.25 872.438 -33.3125 878.188 -23.0625 878.188ZM23.5625 827C23.5625 809.75 36.625 798 55.5625 798C74.1875 798 86.75 808.562 86.75 824.188C86.75 834.062 81.5625 842.5 66.3125 857.125L48.6875 873.938V875.062H88.125V890H24.5625V877.562L53.9375 848.5C66.25 836.188 69.4375 831.438 69.4375 825.375C69.4375 817.562 63.75 812.438 55 812.438C46.0625 812.438 40.0625 818.312 40.0625 826.938V827.375H23.5625V827ZM170.062 890H105.312V875.188H129.625V817.438H128.5L105.25 832.875V816.125L129.625 799.812H147V875.188H170.062V890ZM213.688 891.812C194.812 891.812 181.688 880.688 181.188 864.375H198.312C199.375 871.625 205.688 876.5 214.062 876.5C223.75 876.5 230.25 869.938 230.25 860.188C230.25 850.375 223.688 843.75 214.062 843.75C207.562 843.75 202.625 846.5 199.375 851.938H182.25L186.5 799.812H241.625V814.75H200.562L198.625 838.812H199.75C203.625 833.125 210.438 830 218.875 830C235.5 830 247.125 842.188 247.125 859.75C247.125 879 233.688 891.812 213.688 891.812ZM311.688 890L306.062 867.938H279.25L273.5 890H255.75L282.812 799.812H303.812L330.875 890H311.688ZM292.312 817.5L282.812 854.062H302.5L293.125 817.5H292.312ZM371.938 891.812C353.062 891.812 339.938 880.688 339.438 864.375H356.562C357.625 871.625 363.938 876.5 372.312 876.5C382 876.5 388.5 869.938 388.5 860.188C388.5 850.375 381.938 843.75 372.312 843.75C365.812 843.75 360.875 846.5 357.625 851.938H340.5L344.75 799.812H399.875V814.75H358.812L356.875 838.812H358C361.875 833.125 368.688 830 377.125 830C393.75 830 405.375 842.188 405.375 859.75C405.375 879 391.938 891.812 371.938 891.812ZM440.562 850.438V837.062H451.125C460.125 837.062 466 832.125 466 824.562C466 817.062 460.25 812.312 451.188 812.312C442.312 812.312 436.375 817.375 435.812 825.312H420C420.625 808.375 432.688 798 451.75 798C470.062 798 482.5 807.688 482.5 821.938C482.5 832.562 476.438 840.375 466.562 842.375V843.5C478.75 844.938 486 852.938 486 864.875C486 880.875 472.188 891.812 452 891.812C432.312 891.812 419.062 881 418.25 864.125H434.688C435.312 871.812 441.812 876.688 451.5 876.688C461.812 876.688 468.375 871.625 468.375 863.688C468.375 855.625 461.688 850.438 451.312 850.438H440.562ZM519.688 850.438V837.062H530.25C539.25 837.062 545.125 832.125 545.125 824.562C545.125 817.062 539.375 812.312 530.312 812.312C521.438 812.312 515.5 817.375 514.938 825.312H499.125C499.75 808.375 511.812 798 530.875 798C549.188 798 561.625 807.688 561.625 821.938C561.625 832.562 555.562 840.375 545.688 842.375V843.5C557.875 844.938 565.125 852.938 565.125 864.875C565.125 880.875 551.312 891.812 531.125 891.812C511.438 891.812 498.188 881 497.375 864.125H513.812C514.438 871.812 520.938 876.688 530.625 876.688C540.938 876.688 547.5 871.625 547.5 863.688C547.5 855.625 540.812 850.438 530.438 850.438H519.688ZM598.812 850.438V837.062H609.375C618.375 837.062 624.25 832.125 624.25 824.562C624.25 817.062 618.5 812.312 609.438 812.312C600.562 812.312 594.625 817.375 594.062 825.312H578.25C578.875 808.375 590.938 798 610 798C628.312 798 640.75 807.688 640.75 821.938C640.75 832.562 634.688 840.375 624.812 842.375V843.5C637 844.938 644.25 852.938 644.25 864.875C644.25 880.875 630.438 891.812 610.25 891.812C590.562 891.812 577.312 881 576.5 864.125H592.938C593.562 871.812 600.062 876.688 609.75 876.688C620.062 876.688 626.625 871.625 626.625 863.688C626.625 855.625 619.938 850.438 609.562 850.438H598.812ZM696.062 890V872.938H655.75V858.688L683.188 799.812H701.125L674.625 857.25V858.375H696.625V835.625H712.438V858.688H724.688V872.938H712.688V890H696.062ZM786.438 890L780.812 867.938H754L748.25 890H730.5L757.562 799.812H778.562L805.625 890H786.438ZM767.062 817.5L757.562 854.062H777.25L767.875 817.5H767.062ZM854.312 890V872.938H814V858.688L841.438 799.812H859.375L832.875 857.25V858.375H854.875V835.625H870.688V858.688H882.938V872.938H870.938V890H854.312ZM925.812 891.812C906.938 891.812 893.812 880.688 893.312 864.375H910.438C911.5 871.625 917.812 876.5 926.188 876.5C935.875 876.5 942.375 869.938 942.375 860.188C942.375 850.375 935.812 843.75 926.188 843.75C919.688 843.75 914.75 846.5 911.5 851.938H894.375L898.625 799.812H953.75V814.75H912.688L910.75 838.812H911.875C915.75 833.125 922.562 830 931 830C947.625 830 959.25 842.188 959.25 859.75C959.25 879 945.812 891.812 925.812 891.812ZM994.438 850.438V837.062H1005C1014 837.062 1019.88 832.125 1019.88 824.562C1019.88 817.062 1014.12 812.312 1005.06 812.312C996.188 812.312 990.25 817.375 989.688 825.312H973.875C974.5 808.375 986.562 798 1005.62 798C1023.94 798 1036.38 807.688 1036.38 821.938C1036.38 832.562 1030.31 840.375 1020.44 842.375V843.5C1032.62 844.938 1039.88 852.938 1039.88 864.875C1039.88 880.875 1026.06 891.812 1005.88 891.812C986.188 891.812 972.938 881 972.125 864.125H988.562C989.188 871.812 995.688 876.688 1005.38 876.688C1015.69 876.688 1022.25 871.625 1022.25 863.688C1022.25 855.625 1015.56 850.438 1005.19 850.438H994.438ZM1119.5 859.812C1119.5 878.062 1104.94 891.812 1085.5 891.812C1065.06 891.812 1051.06 878.375 1051.06 858.625C1051.06 847.75 1054.88 837.625 1063.88 824.875C1066.81 820.438 1080.5 802.812 1082.88 799.812H1102.94L1080.25 829.875C1077.5 833.562 1076.88 834.688 1076.19 836.188L1077.44 836.375C1080.75 832.875 1086.25 830.812 1091.88 830.812C1107.75 830.812 1119.5 843.188 1119.5 859.812ZM1085.19 876.75C1094.75 876.75 1101.88 869.812 1101.88 860.438C1101.88 851.062 1094.75 844.125 1085.19 844.125C1075.69 844.125 1068.5 851.062 1068.5 860.438C1068.5 869.812 1075.69 876.75 1085.19 876.75ZM1152.69 850.438V837.062H1163.25C1172.25 837.062 1178.12 832.125 1178.12 824.562C1178.12 817.062 1172.38 812.312 1163.31 812.312C1154.44 812.312 1148.5 817.375 1147.94 825.312H1132.12C1132.75 808.375 1144.81 798 1163.88 798C1182.19 798 1194.62 807.688 1194.62 821.938C1194.62 832.562 1188.56 840.375 1178.69 842.375V843.5C1190.88 844.938 1198.12 852.938 1198.12 864.875C1198.12 880.875 1184.31 891.812 1164.12 891.812C1144.44 891.812 1131.19 881 1130.38 864.125H1146.81C1147.44 871.812 1153.94 876.688 1163.62 876.688C1173.94 876.688 1180.5 871.625 1180.5 863.688C1180.5 855.625 1173.81 850.438 1163.44 850.438H1152.69ZM1242.81 891.875C1221.19 891.875 1208.94 874.938 1208.94 844.875C1208.94 814.812 1221.19 797.875 1242.81 797.875C1264.5 797.875 1276.75 814.812 1276.75 844.875C1276.75 874.938 1264.5 891.875 1242.81 891.875ZM1226.31 844.875C1226.31 845.688 1226.31 846.438 1226.31 847.188L1257.31 826.688C1254.75 817.438 1249.88 812.562 1242.81 812.562C1232.12 812.562 1226.31 823.938 1226.31 844.875ZM1242.81 877.188C1253.56 877.188 1259.38 865.875 1259.38 844.875C1259.38 844.125 1259.38 843.438 1259.38 842.688L1228.38 863.188C1230.94 872.375 1235.81 877.188 1242.81 877.188Z" fill="white"/>
</g>
<g filter="url(#filter3_d_2763_2389)">
<path d="M-205.688 994L-166.75 919.625V918.562H-213V903.75H-148.875V918.688L-187.062 994H-205.688ZM-72.625 978.688V994H-129.5V903.812H-72.625V919.125H-111.688V941.312H-74.9375V955.5H-111.688V978.688H-72.625ZM-23.0625 995.875C-44.3125 995.875 -58.625 985.312 -58.625 969.688C-58.625 958.625 -51 949.688 -39.0625 946.875V945.75C-48.8125 943.438 -55 935.812 -55 926.312C-55 912 -41.75 901.938 -23.0625 901.938C-4.4375 901.938 8.8125 912 8.8125 926.312C8.8125 935.812 2.625 943.438 -7.125 945.75V946.875C4.75 949.562 12.4375 958.562 12.4375 969.688C12.4375 985.312 -1.875 995.875 -23.0625 995.875ZM-23.0625 940.562C-14.4375 940.562 -8.6875 935.438 -8.6875 927.938C-8.6875 920.438 -14.4375 915.312 -23.0625 915.312C-31.75 915.312 -37.5 920.438 -37.5 927.938C-37.5 935.438 -31.75 940.562 -23.0625 940.562ZM-23.0625 982.188C-12.875 982.188 -5.9375 976.438 -5.9375 968C-5.9375 959.562 -12.875 953.812 -23.0625 953.812C-33.3125 953.812 -40.25 959.562 -40.25 968C-40.25 976.438 -33.3125 982.188 -23.0625 982.188ZM23.5625 931C23.5625 913.75 36.625 902 55.5625 902C74.1875 902 86.75 912.562 86.75 928.188C86.75 938.062 81.5625 946.5 66.3125 961.125L48.6875 977.938V979.062H88.125V994H24.5625V981.562L53.9375 952.5C66.25 940.188 69.4375 935.438 69.4375 929.375C69.4375 921.562 63.75 916.438 55 916.438C46.0625 916.438 40.0625 922.312 40.0625 930.938V931.375H23.5625V931ZM102.688 931C102.688 913.75 115.75 902 134.688 902C153.312 902 165.875 912.562 165.875 928.188C165.875 938.062 160.688 946.5 145.438 961.125L127.812 977.938V979.062H167.25V994H103.688V981.562L133.062 952.5C145.375 940.188 148.562 935.438 148.562 929.375C148.562 921.562 142.875 916.438 134.125 916.438C125.188 916.438 119.188 922.312 119.188 930.938V931.375H102.688V931ZM221.312 994V976.938H181V962.688L208.438 903.812H226.375L199.875 961.25V962.375H221.875V939.625H237.688V962.688H249.938V976.938H237.938V994H221.312ZM292.812 995.812C273.938 995.812 260.812 984.688 260.312 968.375H277.438C278.5 975.625 284.812 980.5 293.188 980.5C302.875 980.5 309.375 973.938 309.375 964.188C309.375 954.375 302.812 947.75 293.188 947.75C286.688 947.75 281.75 950.5 278.5 955.938H261.375L265.625 903.812H320.75V918.75H279.688L277.75 942.812H278.875C282.75 937.125 289.562 934 298 934C314.625 934 326.25 946.188 326.25 963.75C326.25 983 312.812 995.812 292.812 995.812ZM361.438 954.438V941.062H372C381 941.062 386.875 936.125 386.875 928.562C386.875 921.062 381.125 916.312 372.062 916.312C363.188 916.312 357.25 921.375 356.688 929.312H340.875C341.5 912.375 353.562 902 372.625 902C390.938 902 403.375 911.688 403.375 925.938C403.375 936.562 397.312 944.375 387.438 946.375V947.5C399.625 948.938 406.875 956.938 406.875 968.875C406.875 984.875 393.062 995.812 372.875 995.812C353.188 995.812 339.938 985 339.125 968.125H355.562C356.188 975.812 362.688 980.688 372.375 980.688C382.688 980.688 389.25 975.625 389.25 967.688C389.25 959.625 382.562 954.438 372.188 954.438H361.438ZM419.188 931C419.188 913.75 432.25 902 451.188 902C469.812 902 482.375 912.562 482.375 928.188C482.375 938.062 477.188 946.5 461.938 961.125L444.312 977.938V979.062H483.75V994H420.188V981.562L449.562 952.5C461.875 940.188 465.062 935.438 465.062 929.375C465.062 921.562 459.375 916.438 450.625 916.438C441.688 916.438 435.688 922.312 435.688 930.938V931.375H419.188V931ZM519.688 954.438V941.062H530.25C539.25 941.062 545.125 936.125 545.125 928.562C545.125 921.062 539.375 916.312 530.312 916.312C521.438 916.312 515.5 921.375 514.938 929.312H499.125C499.75 912.375 511.812 902 530.875 902C549.188 902 561.625 911.688 561.625 925.938C561.625 936.562 555.562 944.375 545.688 946.375V947.5C557.875 948.938 565.125 956.938 565.125 968.875C565.125 984.875 551.312 995.812 531.125 995.812C511.438 995.812 498.188 985 497.375 968.125H513.812C514.438 975.812 520.938 980.688 530.625 980.688C540.938 980.688 547.5 975.625 547.5 967.688C547.5 959.625 540.812 954.438 530.438 954.438H519.688ZM609.938 995.875C588.688 995.875 574.375 985.312 574.375 969.688C574.375 958.625 582 949.688 593.938 946.875V945.75C584.188 943.438 578 935.812 578 926.312C578 912 591.25 901.938 609.938 901.938C628.562 901.938 641.812 912 641.812 926.312C641.812 935.812 635.625 943.438 625.875 945.75V946.875C637.75 949.562 645.438 958.562 645.438 969.688C645.438 985.312 631.125 995.875 609.938 995.875ZM609.938 940.562C618.562 940.562 624.312 935.438 624.312 927.938C624.312 920.438 618.562 915.312 609.938 915.312C601.25 915.312 595.5 920.438 595.5 927.938C595.5 935.438 601.25 940.562 609.938 940.562ZM609.938 982.188C620.125 982.188 627.062 976.438 627.062 968C627.062 959.562 620.125 953.812 609.938 953.812C599.688 953.812 592.75 959.562 592.75 968C592.75 976.438 599.688 982.188 609.938 982.188ZM677.938 954.438V941.062H688.5C697.5 941.062 703.375 936.125 703.375 928.562C703.375 921.062 697.625 916.312 688.562 916.312C679.688 916.312 673.75 921.375 673.188 929.312H657.375C658 912.375 670.062 902 689.125 902C707.438 902 719.875 911.688 719.875 925.938C719.875 936.562 713.812 944.375 703.938 946.375V947.5C716.125 948.938 723.375 956.938 723.375 968.875C723.375 984.875 709.562 995.812 689.375 995.812C669.688 995.812 656.438 985 655.625 968.125H672.062C672.688 975.812 679.188 980.688 688.875 980.688C699.188 980.688 705.75 975.625 705.75 967.688C705.75 959.625 699.062 954.438 688.688 954.438H677.938ZM735.688 931C735.688 913.75 748.75 902 767.688 902C786.312 902 798.875 912.562 798.875 928.188C798.875 938.062 793.688 946.5 778.438 961.125L760.812 977.938V979.062H800.25V994H736.688V981.562L766.062 952.5C778.375 940.188 781.562 935.438 781.562 929.375C781.562 921.562 775.875 916.438 767.125 916.438C758.188 916.438 752.188 922.312 752.188 930.938V931.375H735.688V931ZM836.188 954.438V941.062H846.75C855.75 941.062 861.625 936.125 861.625 928.562C861.625 921.062 855.875 916.312 846.812 916.312C837.938 916.312 832 921.375 831.438 929.312H815.625C816.25 912.375 828.312 902 847.375 902C865.688 902 878.125 911.688 878.125 925.938C878.125 936.562 872.062 944.375 862.188 946.375V947.5C874.375 948.938 881.625 956.938 881.625 968.875C881.625 984.875 867.812 995.812 847.625 995.812C827.938 995.812 814.688 985 813.875 968.125H830.312C830.938 975.812 837.438 980.688 847.125 980.688C857.438 980.688 864 975.625 864 967.688C864 959.625 857.312 954.438 846.938 954.438H836.188ZM961.312 994H896.562V979.188H920.875V921.438H919.75L896.5 936.875V920.125L920.875 903.812H938.25V979.188H961.312V994ZM994.438 954.438V941.062H1005C1014 941.062 1019.88 936.125 1019.88 928.562C1019.88 921.062 1014.12 916.312 1005.06 916.312C996.188 916.312 990.25 921.375 989.688 929.312H973.875C974.5 912.375 986.562 902 1005.62 902C1023.94 902 1036.38 911.688 1036.38 925.938C1036.38 936.562 1030.31 944.375 1020.44 946.375V947.5C1032.62 948.938 1039.88 956.938 1039.88 968.875C1039.88 984.875 1026.06 995.812 1005.88 995.812C986.188 995.812 972.938 985 972.125 968.125H988.562C989.188 975.812 995.688 980.688 1005.38 980.688C1015.69 980.688 1022.25 975.625 1022.25 967.688C1022.25 959.625 1015.56 954.438 1005.19 954.438H994.438ZM1084.56 995.875C1062.94 995.875 1050.69 978.938 1050.69 948.875C1050.69 918.812 1062.94 901.875 1084.56 901.875C1106.25 901.875 1118.5 918.812 1118.5 948.875C1118.5 978.938 1106.25 995.875 1084.56 995.875ZM1068.06 948.875C1068.06 949.688 1068.06 950.438 1068.06 951.188L1099.06 930.688C1096.5 921.438 1091.62 916.562 1084.56 916.562C1073.88 916.562 1068.06 927.938 1068.06 948.875ZM1084.56 981.188C1095.31 981.188 1101.12 969.875 1101.12 948.875C1101.12 948.125 1101.12 947.438 1101.12 946.688L1070.12 967.188C1072.69 976.375 1077.56 981.188 1084.56 981.188ZM1152.69 954.438V941.062H1163.25C1172.25 941.062 1178.12 936.125 1178.12 928.562C1178.12 921.062 1172.38 916.312 1163.31 916.312C1154.44 916.312 1148.5 921.375 1147.94 929.312H1132.12C1132.75 912.375 1144.81 902 1163.88 902C1182.19 902 1194.62 911.688 1194.62 925.938C1194.62 936.562 1188.56 944.375 1178.69 946.375V947.5C1190.88 948.938 1198.12 956.938 1198.12 968.875C1198.12 984.875 1184.31 995.812 1164.12 995.812C1144.44 995.812 1131.19 985 1130.38 968.125H1146.81C1147.44 975.812 1153.94 980.688 1163.62 980.688C1173.94 980.688 1180.5 975.625 1180.5 967.688C1180.5 959.625 1173.81 954.438 1163.44 954.438H1152.69ZM1210.44 931C1210.44 913.75 1223.5 902 1242.44 902C1261.06 902 1273.62 912.562 1273.62 928.188C1273.62 938.062 1268.44 946.5 1253.19 961.125L1235.56 977.938V979.062H1275V994H1211.44V981.562L1240.81 952.5C1253.12 940.188 1256.31 935.438 1256.31 929.375C1256.31 921.562 1250.62 916.438 1241.88 916.438C1232.94 916.438 1226.94 922.312 1226.94 930.938V931.375H1210.44V931Z" fill="white"/>
</g>
</g>
<defs>
<filter id="filter0_d_2763_2389" x="57" y="419" width="921.75" height="195.625" filterUnits="userSpaceOnUse" color-interpolation-filters="sRGB">
<feFlood flood-opacity="0" result="BackgroundImageFix"/>
<feColorMatrix in="SourceAlpha" type="matrix" values="0 0 0 0 0 0 0 0 0 0 0 0 0 0 0 0 0 0 127 0" result="hardAlpha"/>
<feOffset dy="4"/>
<feGaussianBlur stdDeviation="2"/>
<feComposite in2="hardAlpha" operator="out"/>
<feColorMatrix type="matrix" values="0 0 0 0 0 0 0 0 0 0 0 0 0 0 0 0 0 0 0.25 0"/>
<feBlend mode="normal" in2="BackgroundImageFix" result="effect1_dropShadow_2763_2389"/>
<feBlend mode="normal" in="SourceGraphic" in2="effect1_dropShadow_2763_2389" result="shape"/>
</filter>
<filter id="filter1_d_2763_2389" x="-217" y="693.875" width="1498.81" height="102" filterUnits="userSpaceOnUse" color-interpolation-filters="sRGB">
<feFlood flood-opacity="0" result="BackgroundImageFix"/>
<feColorMatrix in="SourceAlpha" type="matrix" values="0 0 0 0 0 0 0 0 0 0 0 0 0 0 0 0 0 0 127 0" result="hardAlpha"/>
<feOffset dy="4"/>
<feGaussianBlur stdDeviation="2"/>
<feComposite in2="hardAlpha" operator="out"/>
<feColorMatrix type="matrix" values="0 0 0 0 0 0 0 0 0 0 0 0 0 0 0 0 0 0 0.25 0"/>
<feBlend mode="normal" in2="BackgroundImageFix" result="effect1_dropShadow_2763_2389"/>
<feBlend mode="normal" in="SourceGraphic" in2="effect1_dropShadow_2763_2389" result="shape"/>
</filter>
<filter id="filter2_d_2763_2389" x="-217" y="797.875" width="1497.75" height="102" filterUnits="userSpaceOnUse" color-interpolation-filters="sRGB">
<feFlood flood-opacity="0" result="BackgroundImageFix"/>
<feColorMatrix in="SourceAlpha" type="matrix" values="0 0 0 0 0 0 0 0 0 0 0 0 0 0 0 0 0 0 127 0" result="hardAlpha"/>
<feOffset dy="4"/>
<feGaussianBlur stdDeviation="2"/>
<feComposite in2="hardAlpha" operator="out"/>
<feColorMatrix type="matrix" values="0 0 0 0 0 0 0 0 0 0 0 0 0 0 0 0 0 0 0.25 0"/>
<feBlend mode="normal" in2="BackgroundImageFix" result="effect1_dropShadow_2763_2389"/>
<feBlend mode="normal" in="SourceGraphic" in2="effect1_dropShadow_2763_2389" result="shape"/>
</filter>
<filter id="filter3_d_2763_2389" x="-217" y="901.875" width="1496" height="102" filterUnits="userSpaceOnUse" color-interpolation-filters="sRGB">
<feFlood flood-opacity="0" result="BackgroundImageFix"/>
<feColorMatrix in="SourceAlpha" type="matrix" values="0 0 0 0 0 0 0 0 0 0 0 0 0 0 0 0 0 0 127 0" result="hardAlpha"/>
<feOffset dy="4"/>
<feGaussianBlur stdDeviation="2"/>
<feComposite in2="hardAlpha" operator="out"/>
<feColorMatrix type="matrix" values="0 0 0 0 0 0 0 0 0 0 0 0 0 0 0 0 0 0 0.25 0"/>
<feBlend mode="normal" in2="BackgroundImageFix" result="effect1_dropShadow_2763_2389"/>
<feBlend mode="normal" in="SourceGraphic" in2="effect1_dropShadow_2763_2389" result="shape"/>
</filter>
<clipPath id="clip0_2763_2389">
<rect width="1024" height="1024" fill="white"/>
</clipPath>
<clipPath id="clip1_2763_2389">
<rect width="529" height="260" fill="white" transform="translate(247 81)"/>
</clipPath>
</defs>
</svg>
