<svg width="1024" height="1024" viewBox="0 0 1024 1024" fill="none" xmlns="http://www.w3.org/2000/svg">
<g clip-path="url(#clip0_771_2482)">
<rect width="1024" height="1024" fill="white"/>
<rect width="1024" height="1024" fill="#F18D8D"/>
<rect width="1024" height="1024" fill="#262625"/>
<g clip-path="url(#clip1_771_2482)">
<path d="M515.655 353.095H670.151C676.614 353.095 682 348.006 682 341.528C682 334.897 676.614 329.807 670.151 329.807H515.655C509.192 329.807 503.96 334.897 503.96 341.528C503.96 348.006 509.192 353.095 515.655 353.095Z" fill="white"/>
<path d="M403.322 408C439.484 408 469.645 377.772 469.645 341.528C469.645 304.977 439.484 274.903 403.322 274.903C367.007 274.903 337 305.131 337 341.528C337 377.772 367.161 408 403.322 408ZM403.322 385.483C379.471 385.483 359.467 365.279 359.467 341.528C359.467 317.623 379.625 297.42 403.322 297.42C427.02 297.42 447.178 317.623 447.178 341.528C447.178 365.279 427.02 385.483 403.322 385.483Z" fill="white"/>
<path d="M515.655 174.81H670.151C676.614 174.81 682 169.72 682 163.088C682 156.611 676.614 151.521 670.151 151.521H515.655C509.192 151.521 503.96 156.611 503.96 163.088C503.96 169.72 509.192 174.81 515.655 174.81Z" fill="white"/>
<path d="M403.322 229.406C439.484 229.406 469.645 199.332 469.645 163.088C469.645 126.691 439.484 96.4626 403.322 96.4626C367.007 96.4626 337 126.691 337 163.088C337 199.332 367.161 229.406 403.322 229.406ZM395.475 198.715C392.243 198.715 390.089 197.018 387.781 194.396L370.546 173.576C369.007 171.879 368.545 170.029 368.545 167.561C368.545 163.088 371.931 159.541 376.086 159.541C379.009 159.541 381.164 160.775 383.164 163.397L395.167 178.665L422.558 134.557C424.404 131.78 426.712 130.238 429.482 130.238C433.791 130.238 437.484 133.631 437.484 137.487C437.484 139.646 436.868 141.497 435.483 143.81L403.322 194.396C401.63 197.172 398.86 198.715 395.475 198.715Z" fill="white"/>
</g>
<g clip-path="url(#clip2_771_2482)">
<path d="M509.743 522.539H839.677C879.867 522.539 908.842 562.787 898.561 600.227L843.416 821.125C840.612 831.421 828.461 841.716 817.246 841.716H619.097L612.555 860.437H509.743H406.931L400.387 841.716H203.175C191.959 841.716 179.809 831.421 177.005 821.125L120.925 600.227C111.579 562.787 139.618 522.539 179.809 522.539H509.743ZM509.743 671.535H247.191C242.687 671.535 239.713 675.278 239.713 679.787V690.849C239.713 695.359 243.451 699.103 247.191 699.103H509.743H772.466C776.969 699.103 779.944 695.359 779.944 690.849V679.787C779.944 675.278 776.204 671.535 772.466 671.535H509.743ZM509.743 488.507H166.048C119.826 488.507 71.5641 538.199 85.4138 593.337L144.721 832.608C151.264 858.476 158.571 875.749 191.114 875.749H377.448L383.991 896H510.848H636.94L643.483 875.749H829.817C862.36 875.749 869.668 859.071 876.21 832.608L935.007 593.337C948.857 538.199 899.83 488.507 854.373 488.507H509.743ZM788.304 596.995H757.206C754.404 596.995 751.77 599.632 751.77 602.44V614.097C751.77 616.905 753.638 619.543 757.206 619.543H788.304C791.108 619.543 793.742 616.905 793.742 614.097V602.44C792.978 599.632 791.108 596.995 788.304 596.995ZM231.929 596.995H263.027C265.831 596.995 268.465 599.632 268.465 602.44V614.097C268.465 616.905 266.595 619.543 263.027 619.543H231.929C229.125 619.543 226.491 616.905 226.491 614.097V602.44C227.256 599.632 229.125 596.995 231.929 596.995ZM715.401 596.995H684.303C681.499 596.995 678.866 599.632 678.866 602.44V614.097C678.866 616.905 680.735 619.543 684.303 619.543H715.401C718.205 619.543 720.839 616.905 720.839 614.097V602.44C720.074 599.632 718.205 596.995 715.401 596.995ZM304.832 596.995H335.93C338.734 596.995 341.368 599.632 341.368 602.44V614.097C341.368 616.905 339.499 619.543 335.93 619.543H304.832C302.029 619.543 299.395 616.905 299.395 614.097V602.44C300.159 599.632 302.029 596.995 304.832 596.995ZM635.955 596.995H604.858C602.054 596.995 599.42 599.632 599.42 602.44V614.097C599.42 616.905 601.289 619.543 604.858 619.543H635.955C638.759 619.543 641.393 616.905 641.393 614.097V602.44C641.393 599.632 638.759 596.995 635.955 596.995ZM384.278 596.995H415.376C418.18 596.995 420.814 599.632 420.814 602.44V614.097C420.814 616.905 418.944 619.543 415.376 619.543H384.278C381.474 619.543 378.84 616.905 378.84 614.097V602.44C378.84 599.632 381.474 596.995 384.278 596.995ZM564.156 596.995H533.06C530.256 596.995 527.622 599.632 527.622 602.44V614.097C527.622 616.905 529.49 619.543 533.06 619.543H564.156C566.96 619.543 569.594 616.905 569.594 614.097V602.44C569.594 599.632 566.79 596.995 564.156 596.995ZM456.077 596.995H487.175C489.979 596.995 492.613 599.632 492.613 602.44V614.097C492.613 616.905 490.743 619.543 487.175 619.543H456.077C453.273 619.543 450.639 616.905 450.639 614.097V602.44C450.639 599.632 453.443 596.995 456.077 596.995ZM715.401 751.435H684.303C681.499 751.435 678.866 754.073 678.866 756.881V768.538C678.866 771.346 680.735 773.983 684.303 773.983H715.401C718.205 773.983 720.839 771.346 720.839 768.538V756.881C720.074 754.073 718.205 751.435 715.401 751.435ZM304.832 751.435H335.93C338.734 751.435 341.368 754.073 341.368 756.881V768.538C341.368 771.346 339.499 773.983 335.93 773.983H304.832C302.029 773.983 299.395 771.346 299.395 768.538V756.881C300.159 754.073 302.029 751.435 304.832 751.435ZM635.955 751.435H604.858C602.054 751.435 599.42 754.073 599.42 756.881V768.538C599.42 771.346 601.289 773.983 604.858 773.983H635.955C638.759 773.983 641.393 771.346 641.393 768.538V756.881C641.393 754.073 638.759 751.435 635.955 751.435ZM384.278 751.435H415.376C418.18 751.435 420.814 754.073 420.814 756.881V768.538C420.814 771.346 418.944 773.983 415.376 773.983H384.278C381.474 773.983 378.84 771.346 378.84 768.538V756.881C378.84 754.073 381.474 751.435 384.278 751.435ZM564.156 751.435H533.06C530.256 751.435 527.622 754.073 527.622 756.881V768.538C527.622 771.346 529.49 773.983 533.06 773.983H564.156C566.96 773.983 569.594 771.346 569.594 768.538V756.881C569.594 754.073 566.79 751.435 564.156 751.435ZM456.077 751.435H487.175C489.979 751.435 492.613 754.073 492.613 756.881V768.538C492.613 771.346 490.743 773.983 487.175 773.983H456.077C453.273 773.983 450.639 771.346 450.639 768.538V756.881C450.639 754.073 453.443 751.435 456.077 751.435ZM788.304 751.435H757.206C754.404 751.435 751.77 754.073 751.77 756.881V768.538C751.77 771.346 753.638 773.983 757.206 773.983H788.304C791.108 773.983 793.742 771.346 793.742 768.538V756.881C792.978 754.073 791.108 751.435 788.304 751.435ZM231.929 751.435H263.027C265.831 751.435 268.465 754.073 268.465 756.881V768.538C268.465 771.346 266.595 773.983 263.027 773.983H231.929C229.125 773.983 226.491 771.346 226.491 768.538V756.881C227.256 754.073 229.125 751.435 231.929 751.435Z" fill="white"/>
</g>
</g>
<defs>
<clipPath id="clip0_771_2482">
<rect width="1024" height="1024" fill="white"/>
</clipPath>
<clipPath id="clip1_771_2482">
<rect width="345" height="312" fill="white" transform="translate(337 96)"/>
</clipPath>
<clipPath id="clip2_771_2482">
<rect width="858" height="418" fill="white" transform="translate(83 478)"/>
</clipPath>
</defs>
</svg>
