<svg width="1024" height="1024" viewBox="0 0 1024 1024" fill="none" xmlns="http://www.w3.org/2000/svg">
<g clip-path="url(#clip0_2766_2466)">
<rect width="1024" height="1024" fill="white"/>
<rect width="1024" height="1024" fill="#262625"/>
<rect x="402.9" y="368.305" width="266" height="143" rx="10" transform="rotate(-26.353 402.9 368.305)" fill="white"/>
<rect x="658.282" y="241.793" width="166" height="143" rx="10" transform="rotate(-26.353 658.282 241.793)" fill="white"/>
<rect x="336.072" y="420.382" width="64" height="109" rx="10" transform="rotate(-26.353 336.072 420.382)" fill="white"/>
<rect x="256.263" y="475.542" width="77" height="81" rx="10" transform="rotate(-26.353 256.263 475.542)" fill="white"/>
<rect x="193.505" y="515.559" width="55" height="65" rx="10" transform="rotate(-26.353 193.505 515.559)" fill="white"/>
<rect x="147" y="514.045" width="22" height="109" rx="11" transform="rotate(-26.353 147 514.045)" fill="white"/>
<path d="M870.915 307.203C877.735 303.824 881.399 297.46 883.181 291.132C884.964 284.802 885.224 277.418 884.494 269.764C883.027 254.383 877.343 235.701 868.118 217.079C858.893 198.456 847.474 182.615 836.127 172.128C830.48 166.91 824.449 162.643 818.333 160.226C812.218 157.809 804.935 156.868 798.115 160.247C791.295 163.625 787.631 169.989 785.848 176.318C784.065 182.648 783.806 190.032 784.536 197.685C786.003 213.066 791.687 231.749 800.912 250.371C810.137 268.993 821.556 284.835 832.903 295.321C838.549 300.54 844.581 304.807 850.697 307.224C856.811 309.64 864.095 310.582 870.915 307.203Z" fill="white" stroke="#262625" stroke-width="20"/>
<circle cx="496.5" cy="486.5" r="55.5" fill="white" stroke="#262625" stroke-width="20"/>
<rect width="43" height="362" transform="translate(474 487)" fill="white"/>
<rect x="211" y="833" width="567" height="37" rx="18.5" fill="white"/>
<rect width="43" height="400" transform="translate(475.468 479.677) rotate(20)" fill="white"/>
<rect width="43" height="400" transform="translate(475.126 494.384) rotate(-20)" fill="white"/>
<path d="M263.848 320.943C314.501 310.364 358.377 290.09 388.349 265.62C418.105 241.327 435.26 211.867 429.26 183.14C423.261 154.413 395.749 134.281 358.758 123.927C321.498 113.498 273.174 112.479 222.521 123.057C171.868 133.636 127.991 153.91 98.0194 178.38C68.2642 202.673 51.1092 232.133 57.1086 260.86C63.108 289.587 90.6196 309.719 127.61 320.073C164.871 330.502 213.195 331.521 263.848 320.943Z" stroke="white" stroke-width="10"/>
<path d="M263.848 320.943C314.501 310.364 358.377 290.09 388.349 265.62C418.105 241.327 435.26 211.867 429.26 183.14C423.261 154.413 395.749 134.281 358.758 123.927C321.498 113.498 273.174 112.479 222.521 123.057C171.868 133.636 127.991 153.91 98.0194 178.38C68.2642 202.673 51.1092 232.133 57.1086 260.86C63.108 289.587 90.6196 309.719 127.61 320.073C164.871 330.502 213.195 331.521 263.848 320.943Z" stroke="white" stroke-width="10"/>
<path d="M263.848 320.943C314.501 310.364 358.377 290.09 388.349 265.62C418.105 241.327 435.26 211.867 429.26 183.14C423.261 154.413 395.749 134.281 358.758 123.927C321.498 113.498 273.174 112.479 222.521 123.057C171.868 133.636 127.991 153.91 98.0194 178.38C68.2642 202.673 51.1092 232.133 57.1086 260.86C63.108 289.587 90.6196 309.719 127.61 320.073C164.871 330.502 213.195 331.521 263.848 320.943Z" stroke="white" stroke-width="10"/>
<path d="M263.848 320.943C314.501 310.364 358.377 290.09 388.349 265.62C418.105 241.327 435.26 211.867 429.26 183.14C423.261 154.413 395.749 134.281 358.758 123.927C321.498 113.498 273.174 112.479 222.521 123.057C171.868 133.636 127.991 153.91 98.0194 178.38C68.2642 202.673 51.1092 232.133 57.1086 260.86C63.108 289.587 90.6196 309.719 127.61 320.073C164.871 330.502 213.195 331.521 263.848 320.943Z" stroke="white" stroke-width="10"/>
<path d="M187.832 306.574C231.13 334.911 276.491 351.601 314.988 355.491C353.206 359.354 386.167 350.653 402.238 326.097C418.309 301.542 413.091 267.853 394.255 234.376C375.283 200.654 341.834 165.763 298.536 137.426C255.239 109.089 209.877 92.3996 171.381 88.5091C133.163 84.6467 100.202 93.3475 84.1308 117.903C68.0598 142.458 73.2783 176.147 92.1135 209.625C111.086 243.346 144.535 278.237 187.832 306.574Z" stroke="white" stroke-width="10"/>
<path d="M187.832 306.574C231.13 334.911 276.491 351.601 314.988 355.491C353.206 359.354 386.167 350.653 402.238 326.097C418.309 301.542 413.091 267.853 394.255 234.376C375.283 200.654 341.834 165.763 298.536 137.426C255.239 109.089 209.877 92.3996 171.381 88.5091C133.163 84.6467 100.202 93.3475 84.1308 117.903C68.0598 142.458 73.2783 176.147 92.1135 209.625C111.086 243.346 144.535 278.237 187.832 306.574Z" stroke="white" stroke-width="10"/>
<path d="M187.832 306.574C231.13 334.911 276.491 351.601 314.988 355.491C353.206 359.354 386.167 350.653 402.238 326.097C418.309 301.542 413.091 267.853 394.255 234.376C375.283 200.654 341.834 165.763 298.536 137.426C255.239 109.089 209.877 92.3996 171.381 88.5091C133.163 84.6467 100.202 93.3475 84.1308 117.903C68.0598 142.458 73.2783 176.147 92.1135 209.625C111.086 243.346 144.535 278.237 187.832 306.574Z" stroke="white" stroke-width="10"/>
<path d="M187.832 306.574C231.13 334.911 276.491 351.601 314.988 355.491C353.206 359.354 386.167 350.653 402.238 326.097C418.309 301.542 413.091 267.853 394.255 234.376C375.283 200.654 341.834 165.763 298.536 137.426C255.239 109.089 209.877 92.3996 171.381 88.5091C133.163 84.6467 100.202 93.3475 84.1308 117.903C68.0598 142.458 73.2783 176.147 92.1135 209.625C111.086 243.346 144.535 278.237 187.832 306.574Z" stroke="white" stroke-width="10"/>
<path d="M147.166 190.424C131.001 239.579 126.621 287.715 132.826 325.907C138.987 363.822 155.922 393.408 183.801 402.576C211.679 411.744 242.869 397.985 270.331 371.126C297.993 344.073 323.038 302.733 339.203 253.577C355.369 204.421 359.749 156.285 353.543 118.093C347.382 80.1781 330.447 50.5917 302.569 41.4237C274.691 32.2557 243.5 46.0156 216.038 72.8738C188.376 99.9276 163.331 141.268 147.166 190.424Z" stroke="white" stroke-width="10"/>
<path d="M147.166 190.424C131.001 239.579 126.621 287.715 132.826 325.907C138.987 363.822 155.922 393.408 183.801 402.576C211.679 411.744 242.869 397.985 270.331 371.126C297.993 344.073 323.038 302.733 339.203 253.577C355.369 204.421 359.749 156.285 353.543 118.093C347.382 80.1781 330.447 50.5917 302.569 41.4237C274.691 32.2557 243.5 46.0156 216.038 72.8738C188.376 99.9276 163.331 141.268 147.166 190.424Z" stroke="white" stroke-width="10"/>
<path d="M147.166 190.424C131.001 239.579 126.621 287.715 132.826 325.907C138.987 363.822 155.922 393.408 183.801 402.576C211.679 411.744 242.869 397.985 270.331 371.126C297.993 344.073 323.038 302.733 339.203 253.577C355.369 204.421 359.749 156.285 353.543 118.093C347.382 80.1781 330.447 50.5917 302.569 41.4237C274.691 32.2557 243.5 46.0156 216.038 72.8738C188.376 99.9276 163.331 141.268 147.166 190.424Z" stroke="white" stroke-width="10"/>
<path d="M147.166 190.424C131.001 239.579 126.621 287.715 132.826 325.907C138.987 363.822 155.922 393.408 183.801 402.576C211.679 411.744 242.869 397.985 270.331 371.126C297.993 344.073 323.038 302.733 339.203 253.577C355.369 204.421 359.749 156.285 353.543 118.093C347.382 80.1781 330.447 50.5917 302.569 41.4237C274.691 32.2557 243.5 46.0156 216.038 72.8738C188.376 99.9276 163.331 141.268 147.166 190.424Z" stroke="white" stroke-width="10"/>
<path d="M177.379 284.27L150.296 231.302L173.262 219.559C177.297 217.496 180.963 216.307 184.26 215.992C187.574 215.667 190.436 216.139 192.847 217.408C195.274 218.668 197.176 220.643 198.551 223.333C199.547 225.281 200.024 227.277 199.982 229.322C199.957 231.357 199.455 233.31 198.476 235.181C197.488 237.035 196.074 238.693 194.234 240.156L194.498 240.673C196.818 239.596 199.183 239.116 201.591 239.233C203.991 239.332 206.219 240.031 208.275 241.329C210.322 242.61 211.984 244.5 213.262 247C214.744 249.897 215.303 252.862 214.94 255.897C214.595 258.923 213.365 261.792 211.251 264.504C209.136 267.217 206.156 269.556 202.311 271.522L177.379 284.27ZM185.887 265.434L192.612 261.996C195.026 260.762 196.607 259.388 197.355 257.874C198.095 256.343 198.011 254.69 197.103 252.914C196.468 251.672 195.646 250.766 194.636 250.195C193.626 249.624 192.481 249.383 191.2 249.472C189.936 249.553 188.571 249.968 187.106 250.717L180.174 254.261L185.887 265.434ZM175.625 245.364L181.522 242.349C182.781 241.706 183.792 240.939 184.554 240.049C185.317 239.158 185.776 238.206 185.932 237.191C186.095 236.15 185.9 235.087 185.344 234.001C184.507 232.363 183.281 231.412 181.668 231.15C180.046 230.87 178.338 231.188 176.545 232.105L170.442 235.226L175.625 245.364ZM245.64 250.281C241.398 252.45 237.329 253.508 233.431 253.457C229.541 253.379 225.989 252.238 222.773 250.032C219.566 247.801 216.869 244.547 214.683 240.271C212.585 236.167 211.578 232.158 211.664 228.242C211.75 224.327 212.866 220.744 215.01 217.494C217.155 214.245 220.279 211.571 224.383 209.472C227.383 207.938 230.336 207.015 233.244 206.703C236.151 206.391 238.92 206.683 241.553 207.577C244.176 208.454 246.597 209.913 248.815 211.954C251.033 213.996 252.949 216.594 254.563 219.749L256.255 223.06L220.771 241.203L216.751 233.341L239.097 221.915C238.498 220.786 237.693 219.936 236.683 219.365C235.682 218.767 234.584 218.47 233.389 218.472C232.202 218.448 231.014 218.74 229.824 219.349C228.669 219.939 227.736 220.731 227.026 221.725C226.307 222.702 225.875 223.771 225.73 224.933C225.602 226.086 225.816 227.249 226.372 228.422L230.71 236.905C231.362 238.181 232.211 239.182 233.257 239.909C234.303 240.635 235.471 241.028 236.762 241.085C238.053 241.143 239.405 240.81 240.819 240.087C241.802 239.585 242.628 238.988 243.297 238.298C243.984 237.599 244.488 236.841 244.81 236.024C245.123 235.19 245.228 234.331 245.125 233.449L258.16 226.784C259.122 229.772 259.287 232.711 258.655 235.601C258.014 238.473 256.6 241.175 254.415 243.706C252.237 246.212 249.312 248.403 245.64 250.281ZM273.923 184.794L279.212 195.14L253.039 208.522L247.749 198.177L273.923 184.794ZM247.952 186.068L262.228 178.768L280.874 215.235C281.157 215.787 281.489 216.204 281.873 216.486C282.248 216.751 282.682 216.877 283.176 216.864C283.66 216.834 284.213 216.66 284.834 216.342C285.265 216.122 285.738 215.815 286.254 215.42C286.788 215.017 287.175 214.71 287.415 214.5L294.615 223.477C294.074 223.993 293.28 224.693 292.231 225.578C291.2 226.453 289.895 227.348 288.319 228.263C285.131 230.11 282.209 231.18 279.553 231.473C276.888 231.748 274.523 231.25 272.459 229.978C270.395 228.706 268.671 226.673 267.286 223.88L247.952 186.068ZM311.448 216.502C308.913 217.798 306.46 218.53 304.088 218.699C301.725 218.842 299.556 218.342 297.579 217.199C295.603 216.056 293.94 214.166 292.592 211.528C291.481 209.355 290.904 207.312 290.86 205.398C290.808 203.468 291.195 201.671 292.02 200.01C292.845 198.348 294.005 196.809 295.499 195.392C297.011 193.967 298.753 192.652 300.725 191.448C302.861 190.138 304.54 189.019 305.761 188.09C306.991 187.135 307.793 186.279 308.167 185.522C308.533 184.748 308.522 183.981 308.134 183.223L308.081 183.119C307.552 182.085 306.75 181.494 305.675 181.348C304.599 181.202 303.441 181.446 302.2 182.081C300.837 182.778 299.88 183.648 299.326 184.692C298.781 185.71 298.735 186.876 299.189 188.188L286.05 194.906C284.988 192.404 284.618 189.787 284.94 187.056C285.27 184.299 286.442 181.634 288.454 179.061C290.457 176.471 293.433 174.166 297.381 172.147C300.226 170.693 302.95 169.724 305.553 169.242C308.146 168.742 310.54 168.681 312.735 169.06C314.921 169.421 316.833 170.184 318.472 171.347C320.119 172.484 321.414 173.975 322.357 175.82L336.269 203.028L322.924 209.851L320.067 204.265L319.757 204.424C319.722 206.312 319.369 208.004 318.698 209.5C318.045 210.987 317.1 212.307 315.863 213.461C314.644 214.607 313.172 215.621 311.448 216.502ZM311.501 205.122C312.587 204.566 313.49 203.822 314.209 202.889C314.945 201.947 315.399 200.899 315.571 199.745C315.742 198.592 315.519 197.412 314.902 196.205L313.21 192.894C312.91 193.244 312.579 193.597 312.219 193.956C311.875 194.305 311.493 194.664 311.072 195.031C310.668 195.39 310.226 195.758 309.744 196.134C309.28 196.502 308.785 196.875 308.26 197.252C307.245 197.989 306.485 198.736 305.981 199.494C305.485 200.226 305.21 200.965 305.156 201.71C305.111 202.429 305.265 203.134 305.617 203.823C306.181 204.927 307.001 205.573 308.077 205.763C309.153 205.952 310.294 205.739 311.501 205.122Z" fill="white"/>
</g>
<defs>
<clipPath id="clip0_2766_2466">
<rect width="1024" height="1024" fill="white"/>
</clipPath>
</defs>
</svg>
