<svg width="1024" height="1024" viewBox="0 0 1024 1024" fill="none" xmlns="http://www.w3.org/2000/svg">
<g clip-path="url(#clip0_2766_2466)">
<rect width="1024" height="1024" fill="white"/>
<rect width="1024" height="1024" fill="#262625"/>
<g clip-path="url(#clip1_2766_2466)">
<rect x="402.9" y="368.305" width="266" height="143" rx="10" transform="rotate(-26.353 402.9 368.305)" fill="white"/>
<path d="M473.356 454.379L439.983 389.109L468.283 374.638C473.255 372.096 477.772 370.631 481.835 370.242C485.919 369.842 489.446 370.424 492.416 371.988C495.408 373.54 497.751 375.974 499.446 379.288C500.673 381.689 501.261 384.149 501.209 386.668C501.178 389.177 500.559 391.583 499.353 393.889C498.136 396.173 496.393 398.216 494.125 400.019L494.451 400.656C497.31 399.329 500.224 398.737 503.192 398.881C506.149 399.004 508.894 399.865 511.427 401.464C513.95 403.042 515.998 405.372 517.574 408.452C519.399 412.022 520.088 415.676 519.641 419.416C519.216 423.144 517.7 426.68 515.095 430.022C512.489 433.365 508.817 436.247 504.079 438.67L473.356 454.379ZM483.84 431.168L492.127 426.931C495.101 425.41 497.05 423.717 497.972 421.852C498.883 419.965 498.78 417.928 497.661 415.74C496.879 414.21 495.865 413.093 494.621 412.389C493.377 411.685 491.965 411.389 490.387 411.499C488.83 411.598 487.148 412.11 485.342 413.033L476.801 417.4L483.84 431.168ZM471.195 406.437L478.461 402.722C480.012 401.928 481.258 400.983 482.198 399.886C483.138 398.789 483.704 397.616 483.895 396.365C484.097 395.083 483.856 393.772 483.171 392.434C482.139 390.415 480.629 389.244 478.641 388.921C476.642 388.576 474.538 388.968 472.329 390.098L464.807 393.944L471.195 406.437ZM557.471 412.495C552.244 415.168 547.229 416.472 542.426 416.409C537.634 416.313 533.256 414.907 529.293 412.189C525.341 409.439 522.018 405.429 519.324 400.16C516.738 395.104 515.499 390.163 515.605 385.338C515.71 380.513 517.085 376.098 519.727 372.094C522.37 368.089 526.22 364.794 531.276 362.209C534.973 360.318 538.613 359.181 542.196 358.797C545.778 358.412 549.191 358.771 552.435 359.873C555.667 360.954 558.65 362.752 561.384 365.267C564.117 367.783 566.478 370.984 568.466 374.873L570.552 378.952L526.826 401.309L521.872 391.621L549.408 377.542C548.67 376.15 547.679 375.102 546.434 374.399C545.2 373.663 543.847 373.296 542.374 373.299C540.912 373.269 539.448 373.629 537.982 374.379C536.558 375.107 535.409 376.083 534.534 377.307C533.649 378.511 533.116 379.828 532.937 381.26C532.779 382.681 533.043 384.114 533.728 385.559L539.073 396.012C539.877 397.585 540.923 398.818 542.212 399.714C543.501 400.61 544.94 401.093 546.531 401.164C548.122 401.235 549.789 400.825 551.531 399.934C552.742 399.315 553.76 398.58 554.585 397.73C555.431 396.868 556.052 395.934 556.448 394.927C556.834 393.899 556.963 392.842 556.836 391.754L572.898 383.541C574.084 387.223 574.288 390.845 573.509 394.405C572.719 397.945 570.977 401.274 568.284 404.394C565.601 407.481 561.997 410.181 557.471 412.495ZM592.323 331.799L598.841 344.547L566.589 361.038L560.07 348.29L592.323 331.799ZM560.32 333.368L577.912 324.373L600.889 369.31C601.237 369.99 601.647 370.503 602.12 370.851C602.581 371.178 603.116 371.333 603.725 371.317C604.322 371.28 605.003 371.066 605.768 370.674C606.299 370.403 606.883 370.024 607.519 369.538C608.176 369.041 608.653 368.663 608.949 368.405L617.821 379.467C617.155 380.102 616.175 380.965 614.883 382.054C613.612 383.133 612.005 384.236 610.062 385.364C606.134 387.64 602.534 388.959 599.26 389.319C595.976 389.658 593.063 389.044 590.519 387.477C587.976 385.909 585.851 383.404 584.144 379.962L560.32 333.368ZM638.563 370.871C635.44 372.468 632.417 373.371 629.495 373.578C626.583 373.754 623.909 373.138 621.474 371.73C619.038 370.321 616.99 367.992 615.328 364.741C613.959 362.064 613.248 359.547 613.194 357.188C613.13 354.809 613.607 352.596 614.623 350.548C615.64 348.501 617.069 346.604 618.91 344.859C620.773 343.102 622.919 341.482 625.35 339.998C627.982 338.384 630.051 337.005 631.556 335.86C633.072 334.683 634.06 333.628 634.521 332.696C634.971 331.742 634.958 330.797 634.48 329.862L634.414 329.735C633.763 328.46 632.774 327.733 631.449 327.553C630.124 327.372 628.697 327.673 627.167 328.456C625.489 329.314 624.308 330.386 623.626 331.673C622.954 332.928 622.898 334.364 623.457 335.981L607.267 344.259C605.958 341.176 605.502 337.952 605.899 334.586C606.306 331.189 607.749 327.905 610.229 324.734C612.697 321.542 616.364 318.702 621.23 316.215C624.735 314.422 628.092 313.229 631.299 312.634C634.495 312.018 637.445 311.944 640.149 312.41C642.843 312.856 645.199 313.795 647.219 315.228C649.248 316.629 650.844 318.466 652.007 320.74L669.15 354.267L652.705 362.676L649.185 355.792L648.802 355.987C648.759 358.314 648.324 360.399 647.498 362.242C646.693 364.075 645.528 365.702 644.004 367.124C642.501 368.536 640.688 369.785 638.563 370.871ZM638.629 356.847C639.967 356.163 641.08 355.246 641.966 354.096C642.873 352.935 643.432 351.644 643.644 350.223C643.855 348.801 643.58 347.347 642.82 345.86L640.734 341.78C640.365 342.211 639.958 342.647 639.513 343.088C639.09 343.519 638.619 343.961 638.1 344.414C637.603 344.856 637.057 345.309 636.464 345.773C635.892 346.226 635.282 346.685 634.635 347.15C633.384 348.058 632.448 348.979 631.827 349.913C631.216 350.815 630.877 351.725 630.811 352.643C630.755 353.53 630.944 354.398 631.378 355.248C632.074 356.608 633.084 357.404 634.41 357.638C635.735 357.871 637.141 357.608 638.629 356.847Z" fill="#262625"/>
</g>
<rect x="658.282" y="241.793" width="166" height="143" rx="10" transform="rotate(-26.353 658.282 241.793)" fill="white"/>
<rect x="336.072" y="420.382" width="64" height="109" rx="10" transform="rotate(-26.353 336.072 420.382)" fill="white"/>
<rect x="256.263" y="475.542" width="77" height="81" rx="10" transform="rotate(-26.353 256.263 475.542)" fill="white"/>
<rect x="193.505" y="515.559" width="55" height="65" rx="10" transform="rotate(-26.353 193.505 515.559)" fill="white"/>
<rect x="147" y="514.045" width="22" height="109" rx="11" transform="rotate(-26.353 147 514.045)" fill="white"/>
<path d="M870.915 307.203C877.735 303.824 881.399 297.46 883.181 291.132C884.964 284.802 885.224 277.418 884.494 269.764C883.027 254.383 877.343 235.701 868.118 217.079C858.893 198.456 847.474 182.615 836.127 172.128C830.48 166.91 824.449 162.643 818.333 160.226C812.218 157.809 804.935 156.868 798.115 160.247C791.295 163.625 787.631 169.989 785.848 176.318C784.065 182.648 783.806 190.032 784.536 197.685C786.003 213.066 791.687 231.749 800.912 250.371C810.137 268.993 821.556 284.835 832.903 295.321C838.549 300.54 844.581 304.807 850.697 307.224C856.811 309.64 864.095 310.582 870.915 307.203Z" fill="white" stroke="#262625" stroke-width="20"/>
<circle cx="496.5" cy="486.5" r="55.5" fill="white" stroke="#262625" stroke-width="20"/>
<rect width="43" height="362" transform="translate(474 487)" fill="white"/>
<rect x="211" y="833" width="567" height="37" rx="18.5" fill="white"/>
<rect width="43" height="400" transform="translate(475.468 479.677) rotate(20)" fill="white"/>
<rect width="43" height="400" transform="translate(475.126 494.384) rotate(-20)" fill="white"/>
</g>
<defs>
<clipPath id="clip0_2766_2466">
<rect width="1024" height="1024" fill="white"/>
</clipPath>
<clipPath id="clip1_2766_2466">
<rect x="402.9" y="368.305" width="266" height="143" rx="10" transform="rotate(-26.353 402.9 368.305)" fill="white"/>
</clipPath>
</defs>
</svg>
