<svg width="1024" height="1024" viewBox="0 0 1024 1024" fill="none" xmlns="http://www.w3.org/2000/svg">
<g clip-path="url(#clip0_2896_2265)">
<rect width="1024" height="1024" fill="white"/>
<rect width="1024" height="1024" fill="#262625"/>
<g clip-path="url(#clip1_2896_2265)">
<path d="M201.933 691.52L330.187 701.662C330.187 701.662 330.187 743 323.98 743C271.214 743 221.552 743 188.185 743C182.754 743 174.218 740.677 171.89 736.028C161.803 715.11 162.579 628.338 162.579 628.338L201.933 691.52ZM860.646 627.563C860.646 627.563 861.421 714.335 851.334 735.253C849.006 739.901 840.471 742.226 835.039 742.226C801.672 742.226 752.01 742.226 699.245 742.226C693.036 742.226 693.036 700.887 693.036 700.887L821.291 690.746L860.646 627.563ZM767.68 685.184L511.612 686.734L255.544 685.184C255.544 685.184 252.44 652.645 257.872 644.122C264.855 634.826 281.151 622.43 310.638 622.43C356.419 622.43 510.836 622.43 510.836 622.43C510.836 622.43 665.253 622.43 711.034 622.43C740.521 622.43 756.817 634.826 763.801 644.122C770.785 653.419 767.68 685.184 767.68 685.184ZM775.439 726.026C765.493 726.026 756.324 725.251 747.788 725.251C741.581 725.251 736.007 724.477 731.986 724.477H292.014C287.358 724.477 281.785 724.477 276.212 725.251C267.818 726.026 258.506 726.026 248.56 726.026C232.334 726.026 194.458 725.602 173.933 698.843C149.528 666.518 154.606 519.814 170.125 467.623C183.951 420.013 228.818 399.378 262.604 391.21C287.006 337.201 316.774 308.879 329.899 300.283C358.677 281.691 421.244 280.211 436.343 280.211H587.657C603.392 280.211 665.323 281.55 694.101 300.283C707.862 308.879 736.994 337.201 761.396 391.21C795.182 399.378 840.049 420.013 853.874 467.623C869.394 519.814 874.612 666.026 850.066 698.843C829.542 725.602 792.301 726.026 775.439 726.026ZM731.845 683.634C755.9 683.634 804.785 691.381 817.977 674.338C828.065 661.166 831.944 535.658 814.872 479.101C801.681 435.715 744.26 428.743 734.173 427.968C733.397 427.968 732.62 427.193 731.845 426.419C727.964 416.347 703.133 353.592 672.095 334.224C658.128 325.701 617.002 321.053 587.515 321.053C568.892 321.053 454.826 321.053 436.202 321.053C406.715 321.053 365.59 325.701 351.622 334.224C321.218 353.592 295.753 415.572 291.873 426.419C291.873 427.193 291.097 427.968 289.545 427.968C279.457 428.743 221.26 434.94 208.844 479.101C192.549 534.882 195.653 660.392 205.741 674.338C218.932 691.381 267.042 683.634 291.873 683.634C334.55 683.634 689.308 683.634 731.845 683.634ZM227.877 406.133C227.877 406.133 210.03 399.936 206.926 397.611C204.598 395.287 201.494 392.188 199.942 389.089C199.167 385.99 199.942 380.567 203.046 377.468C210.806 371.27 231.757 367.397 241.069 368.945C242.62 368.945 246.5 371.27 247.276 372.82C249.604 376.693 246.5 386.764 247.276 391.413C247.276 393.737 253.484 402.26 253.484 402.26L227.877 406.133ZM796.219 406.133L770.613 402.26C770.613 402.26 776.044 393.737 776.82 391.413C777.595 386.764 774.492 376.693 776.82 372.82C777.595 371.27 781.476 368.945 783.028 368.945C792.339 367.397 813.29 371.27 821.05 377.468C824.153 380.567 824.929 385.99 824.153 389.089C823.378 392.188 820.274 395.287 817.17 397.611C814.066 399.936 796.219 406.133 796.219 406.133ZM279.544 546.636C306.678 546.636 311.728 530.909 311.728 503.753C311.728 476.663 306.678 456.125 279.544 456.125C252.347 456.125 231.841 476.663 231.841 503.753C231.841 530.909 252.347 546.636 279.544 546.636ZM744.379 546.636C771.513 546.636 792.083 530.909 792.083 503.753C792.083 476.663 771.513 456.125 744.379 456.125C717.182 456.125 712.195 476.663 712.195 503.753C712.195 530.909 717.182 546.636 744.379 546.636Z" fill="white"/>
</g>
</g>
<defs>
<clipPath id="clip0_2896_2265">
<rect width="1024" height="1024" fill="white"/>
</clipPath>
<clipPath id="clip1_2896_2265">
<rect width="710" height="463" fill="white" transform="translate(157 280)"/>
</clipPath>
</defs>
</svg>
