<svg width="2073" height="325" viewBox="0 0 2073 325" fill="none" xmlns="http://www.w3.org/2000/svg">
<path d="M950 0C1142 0 1381.5 109.5 1490.5 164C1384.83 120.709 1160 30.5 960.5 30.5C798.448 30.5 649.167 53.791 590.5 71C604.5 88 614.8 114.9 694 154.5C768.943 191.971 902.472 233.74 952.761 245.324C955.398 245.894 957.979 246.453 960.5 247C958.206 246.543 955.618 245.982 952.761 245.324C815.598 215.681 524.961 155.787 397 140C320 130.5 127.833 127 76.5 130.5C133.5 124.5 283.9 101.9 413.5 75.5C575.5 42.5 680 0 950 0Z" fill="#F3F4F6"/>
<path d="M895.5 200.5C778.5 181 643 110.833 620.5 84.5C633.667 95.3282 671.2 115.888 708 129.5C754 146.515 839 170 967.5 177.5C1096 185 1437.77 166.321 1517.5 175.5C1960.5 226.5 1962 238.543 2073 325C1973.5 247.5 1836.5 238.5 1701 226.5C1626.07 222.753 1298.5 237.5 1205.5 236.5C1112.5 235.5 1024.31 221.968 895.5 200.5Z" fill="#F3F4F6"/>
<path d="M357.5 162.5C501.1 177.7 651.167 214 698 231.5C630 223.833 479.8 214.8 403 218C326.2 221.2 205 235.333 156.5 243.5C187.5 234.833 248 210.5 248 201.5C248 190.5 190 170 143 162.5C107 156.755 24.6667 140.833 0 139.5C66.1667 140.833 213.9 147.3 357.5 162.5Z" fill="#F3F4F6"/>
</svg>
