<svg width="1000" height="1000" viewBox="0 0 1000 1000" fill="none" xmlns="http://www.w3.org/2000/svg">
<rect width="1000" height="1000" fill="#18181B"/>
<rect x="628.469" y="194.573" width="235.016" height="611.041" fill="#F3F4F6"/>
<circle cx="500.162" cy="500.729" r="388.729" fill="#18181B"/>
<circle cx="873.648" cy="500.729" r="53.3549" fill="#F3F4F6"/>
<circle cx="500.163" cy="500.729" r="263.599" stroke="#F3F4F6" stroke-width="34.2996"/>
<rect x="506.355" y="458.604" width="316.207" height="50.8142" rx="25.4071" transform="rotate(-45 506.355 458.604)" fill="#F3F4F6" stroke="#18181B" stroke-width="25.4071"/>
<rect x="454.762" y="491.257" width="396.194" height="50.8142" transform="rotate(-135 454.762 491.257)" fill="#F3F4F6" stroke="#18181B" stroke-width="25.4071"/>
<rect x="460.782" y="526.136" width="428.11" height="50.8143" rx="25.4071" transform="rotate(180 460.782 526.136)" fill="#F3F4F6" stroke="#18181B" stroke-width="25.4071"/>
<rect x="494.706" y="542.117" width="478.52" height="50.8142" transform="rotate(135 494.706 542.117)" fill="#F3F4F6" stroke="#18181B" stroke-width="25.4071"/>
<rect x="537.744" y="502.378" width="323.681" height="50.8142" rx="25.4071" transform="rotate(45 537.744 502.378)" fill="#F3F4F6" stroke="#18181B" stroke-width="25.4071"/>
<circle cx="500.162" cy="500.729" r="188.013" stroke="#F3F4F6" stroke-width="27.9478"/>
<circle cx="147.003" cy="852.617" r="47.0032" fill="#F3F4F6"/>
<circle cx="195.279" cy="195.843" r="26.6775" fill="#F3F4F6"/>
<circle cx="500.162" cy="500.729" r="374.755" stroke="#F3F4F6" stroke-width="27.9478"/>
<circle cx="500.163" cy="500.729" r="57.166" stroke="#F3F4F6" stroke-width="58.4364"/>
<circle cx="500.162" cy="227.602" r="36.2051" fill="#F3F4F6" stroke="#18181B" stroke-width="19.0553"/>
<circle cx="227.037" cy="500.729" r="36.2051" fill="#F3F4F6" stroke="#18181B" stroke-width="19.0553"/>
<circle cx="500.162" cy="773.855" r="36.2051" fill="#F3F4F6" stroke="#18181B" stroke-width="19.0553"/>
</svg>
